<svg width="64" height="69" viewBox="0 0 64 69" fill="none" xmlns="http://www.w3.org/2000/svg">
<g clip-path="url(#clip0_1_43)">
<path d="M0 28.8381C0.623926 48.8183 14.5583 55.4784 31.7162 55.4784C48.8742 55.4784 62.8085 48.8183 63.4324 28.8381H0V28.8381Z" fill="#118DEA"/>
<path d="M31.7162 55.5616C48.8742 55.5616 62.8085 48.6518 63.4324 28.9213Z" fill="#1383E8"/>
<path d="M0 28.9213C0.623926 48.6518 14.5583 55.5616 31.7162 55.5616Z" fill="#0099E5"/>
<path d="M0.103992 29.6706H63.4324C63.4324 29.6706 63.4324 29.6706 63.5364 28.8381H0.103992C4.07851e-06 29.6706 4.07851e-06 29.6706 0.103992 29.6706Z" fill="#69C2F9"/>
<path d="M17.158 52.9808V56.2276C17.158 56.6439 17.5739 57.1434 18.0938 57.1434H45.3386C45.8585 57.1434 46.2745 56.6439 46.2745 56.2276V52.9808H17.158Z" fill="#0768D3"/>
<path d="M20.2776 56.2276V52.9808H17.158V56.2276C17.158 56.6439 17.5739 57.1434 18.0938 57.1434H21.2135C20.5895 57.1434 20.2776 56.6439 20.2776 56.2276Z" fill="#1383E8"/>
<rect width="7.29463" height="6.21091" rx="3.10546" transform="matrix(0.817684 0.575668 -0.77109 0.636727 22.5324 24.7843)" fill="#118DEA"/>
<rect x="16.5901" y="17.2885" width="8.11854" height="5.38267" rx="2.69133" fill="#118DEA"/>
</g>
<rect width="7.51673" height="6.00733" rx="3.00367" transform="matrix(0.876782 0.480889 -0.686241 0.727375 9.53186 21.3703)" fill="#118DEA"/>
<rect width="7.31136" height="6.19602" rx="3.09801" transform="matrix(0.822477 0.568798 -0.76547 0.643471 20.72 7.83299)" fill="#118DEA"/>
<rect width="7.1174" height="6.3645" rx="3.18225" transform="matrix(0.76281 0.646622 -0.824694 0.565579 15.6174 0)" fill="#118DEA"/>
<rect width="7.50603" height="6.01745" rx="3.00872" transform="matrix(0.874141 0.485672 -0.690917 0.722934 41.6852 12.7524)" fill="#118DEA"/>
<ellipse cx="31.2387" cy="20.6527" rx="4.05927" ry="3.09503" fill="#0099E5"/>
<ellipse cx="33.3566" cy="27.9193" rx="4.05927" ry="3.09503" fill="#0099E5"/>
<ellipse cx="9.70695" cy="17.4231" rx="4.05927" ry="3.09503" fill="#0099E5"/>
<ellipse cx="7.23609" cy="9.07991" rx="4.05927" ry="3.09503" fill="#0099E5"/>
<ellipse cx="32.6507" cy="12.8478" rx="4.05927" ry="3.09503" fill="#0099E5"/>
<ellipse cx="42.1811" cy="24.1514" rx="4.05927" ry="3.09503" fill="#0099E5"/>
<defs>
<clipPath id="clip0_1_43">
<rect width="63.5364" height="50.8662" fill="white" transform="translate(0 17.5576)"/>
</clipPath>
</defs>
</svg>
